<mxfile host="drawio-plugin" modified="2024-04-11T20:49:31.735Z" agent="5.0 (X11; Linux x86_64) AppleWebKit/537.36 (KHTML, like Gecko) Chrome/111.0.0.0 Safari/537.36" etag="Ja20bXA-3Y_6nRq4YD9B" version="20.5.3" type="embed"><diagram id="ERxrzM34JgP0kjhDalQf" name="Page-1"><mxGraphModel dx="622" dy="551" grid="1" gridSize="10" guides="1" tooltips="1" connect="1" arrows="1" fold="1" page="0" pageScale="1" pageWidth="827" pageHeight="1169" background="#EEEEEE" math="0" shadow="0"><root><mxCell id="0"/><mxCell id="1" parent="0"/><mxCell id="15" value="&lt;p style=&quot;margin:0px;margin-top:4px;text-align:center;&quot;&gt;&lt;b&gt;Class&lt;/b&gt;&lt;/p&gt;&lt;hr size=&quot;1&quot;&gt;&lt;p style=&quot;margin:0px;margin-left:4px;&quot;&gt;+ field: Type&lt;/p&gt;&lt;hr size=&quot;1&quot;&gt;&lt;p style=&quot;margin:0px;margin-left:4px;&quot;&gt;+ method(): Type&lt;/p&gt;" style="verticalAlign=top;align=left;overflow=fill;fontSize=12;fontFamily=Helvetica;html=1;labelBorderColor=#141414;fillColor=#FFFFFF;strokeColor=default;fontColor=#1A1A1A;rounded=0;" vertex="1" parent="1"><mxGeometry x="250" y="230" width="160" height="90" as="geometry"/></mxCell></root></mxGraphModel></diagram></mxfile>